<svg width="30" height="40" viewBox="0 0 30 40" fill="none" xmlns="http://www.w3.org/2000/svg">
<g clip-path="url(#clip0_13195_61377)">
<path d="M17.2364 5.28247C17.2059 5.31301 17.1754 5.35881 17.1448 5.38934C16.8395 5.67942 16.4731 5.90842 16.0761 6.07636C15.6639 6.2443 15.2364 6.32064 14.7937 6.32064C14.3509 6.32064 13.9082 6.2443 13.496 6.07636C13.0685 5.90842 12.6868 5.63362 12.3662 5.31301V7.84736H17.2364V5.28247Z" fill="#BE78FF"/>
<path d="M13.481 6.07635C13.8932 6.24429 14.336 6.32063 14.7787 6.32063C15.2215 6.32063 15.6489 6.24429 16.0612 6.07635C16.4581 5.90841 16.8093 5.67941 17.1299 5.38933C17.1604 5.3588 17.1909 5.31299 17.2215 5.28246C17.481 5.00765 17.6795 4.70231 17.8322 4.36643C18.0154 3.96948 18.107 3.55727 18.107 3.12979C18.107 2.70231 18.0154 2.29009 17.8322 1.90842C17.6642 1.52674 17.4199 1.17559 17.1299 0.885515C16.8245 0.595438 16.4734 0.366431 16.0764 0.213759C15.6795 0.0305528 15.2367 -0.0610501 14.794 -0.0457829C13.9085 -0.0305158 13.0688 0.305362 12.4428 0.900782C12.1375 1.19086 11.9085 1.542 11.7405 1.92368C11.5726 2.30536 11.481 2.73284 11.4963 3.14506C11.4963 3.57254 11.5726 4.00002 11.7405 4.3817C11.8932 4.73284 12.107 5.03819 12.3665 5.313C12.6718 5.63361 13.0535 5.89315 13.481 6.07635Z" fill="white"/>
<path d="M11.5422 15.9542C11.2063 15.6183 10.7788 15.3893 10.3055 15.2977C9.83227 15.2061 9.34372 15.2519 8.90097 15.4351C8.45822 15.6183 8.07654 15.9236 7.817 16.3206C7.55746 16.7175 7.40479 17.1908 7.40479 17.6641C7.40479 18.3053 7.66433 18.916 8.10708 19.374C8.56509 19.8321 9.17578 20.0763 9.817 20.0763C10.2903 20.0763 10.7636 19.9389 11.1605 19.6641C11.5575 19.4046 11.8628 19.0229 12.046 18.5801C12.2292 18.1374 12.275 17.6488 12.1834 17.1756C12.1071 16.7175 11.8781 16.2901 11.5422 15.9542Z" fill="white"/>
<path d="M22.0002 18.5954C22.1834 18.1527 22.2292 17.6641 22.1376 17.1908C22.046 16.7175 21.817 16.2901 21.4812 15.9542C21.1453 15.6183 20.7178 15.3893 20.2445 15.2977C19.7712 15.2061 19.2827 15.2519 18.8399 15.4351C18.3972 15.6183 18.0155 15.9236 17.756 16.3206C17.4964 16.7175 17.3438 17.1908 17.3438 17.6641C17.3438 18.3053 17.6033 18.916 18.046 19.374C18.5041 19.8321 19.1147 20.0763 19.756 20.0763C20.2292 20.0763 20.7025 19.9389 21.0995 19.6641C21.5117 19.4198 21.817 19.0382 22.0002 18.5954Z" fill="white"/>
<path d="M6.35129 29.4809H1.29785V34.2901H6.35129V29.4962V29.4809Z" fill="#FF50A4"/>
<path d="M29.5877 17.6641C29.5877 12.2443 25.1907 7.84735 19.7709 7.84735H17.2365H12.3663H9.83193C4.41208 7.84735 0.0151367 12.2443 0.0151367 17.6641C0.0151367 23.084 4.41208 27.4809 9.81666 27.4809H9.86247C9.67926 27.8321 9.43499 28.1527 9.12964 28.4275C8.39682 29.0993 7.38918 29.4809 6.35102 29.4962V34.3054C8.56476 34.3054 10.7022 33.5573 12.3663 32.229V34.8855H17.206V32.2138C18.8701 33.542 21.0075 34.2901 23.2212 34.2901V29.4809C22.1831 29.4809 21.1754 29.0993 20.4426 28.4122C20.1373 28.1374 19.893 27.8168 19.7098 27.4657H19.7556C25.1754 27.4809 29.5877 23.084 29.5877 17.6641ZM9.81666 22.6412C7.06857 22.6412 4.83956 20.4122 4.83956 17.6641C4.83956 14.9161 7.06857 12.687 9.81666 12.687H19.7556C22.5037 12.687 24.7327 14.9161 24.7327 17.6641C24.7327 20.4122 22.5037 22.6412 19.7556 22.6412H9.81666Z" fill="white"/>
<path d="M23.2368 29.4962V34.2901H28.2903V29.4809H23.2368V29.4962Z" fill="#04E1FF"/>
<path d="M12.3662 37.1756V39.9695H17.2212V37.1756V34.8702H12.3662V37.1756Z" fill="#FF8F28"/>
</g>
<defs>
<clipPath id="clip0_13195_61377">
<rect width="29.6183" height="40" fill="white"/>
</clipPath>
</defs>
</svg>
