<svg width="40" height="40" viewBox="0 0 40 40" fill="none" xmlns="http://www.w3.org/2000/svg">
<path d="M22.3397 6.2168C22.3105 6.24604 22.2812 6.28992 22.252 6.31916C21.9595 6.59701 21.6086 6.81637 21.2283 6.97723C20.8335 7.13809 20.424 7.2112 20 7.2112C19.5759 7.2112 19.1518 7.13809 18.757 6.97723C18.3475 6.81637 17.9819 6.55314 17.6748 6.24604V8.67357H22.3397V6.2168Z" fill="#BE78FF"/>
<path d="M18.7425 6.97722C19.1373 7.13808 19.5614 7.21119 19.9855 7.21119C20.4096 7.21119 20.819 7.13808 21.2139 6.97722C21.5941 6.81636 21.9304 6.597 22.2375 6.31915C22.2668 6.28991 22.296 6.24603 22.3253 6.21679C22.5739 5.95356 22.764 5.66109 22.9102 5.33937C23.0857 4.95916 23.1735 4.56432 23.1735 4.15486C23.1735 3.7454 23.0857 3.35056 22.9102 2.98497C22.7494 2.61938 22.5154 2.28303 22.2375 2.00519C21.9451 1.72734 21.6087 1.50798 21.2285 1.36175C20.8483 1.18626 20.4242 1.09852 20.0001 1.11314C19.152 1.12777 18.3477 1.44949 17.7481 2.01981C17.4556 2.29766 17.2363 2.634 17.0754 2.99959C16.9145 3.36518 16.8268 3.77464 16.8414 4.16948C16.8414 4.57894 16.9145 4.9884 17.0754 5.35399C17.2216 5.69034 17.4264 5.98281 17.675 6.24603C17.9674 6.55313 18.333 6.80173 18.7425 6.97722Z" fill="#08124C"/>
<path d="M16.8849 16.4384C16.5631 16.1167 16.1537 15.8974 15.7004 15.8096C15.247 15.7219 14.7791 15.7657 14.355 15.9412C13.9309 16.1167 13.5653 16.4092 13.3167 16.7894C13.0681 17.1696 12.9219 17.6229 12.9219 18.0763C12.9219 18.6905 13.1705 19.2754 13.5946 19.7141C14.0333 20.1528 14.6182 20.3868 15.2324 20.3868C15.6857 20.3868 16.1391 20.2552 16.5193 19.992C16.8995 19.7434 17.192 19.3778 17.3674 18.9537C17.5429 18.5296 17.5868 18.0617 17.4991 17.6083C17.4259 17.1696 17.2066 16.7602 16.8849 16.4384Z" fill="#08124C"/>
<path d="M26.9021 18.9683C27.0776 18.5442 27.1215 18.0763 27.0337 17.6229C26.946 17.1696 26.7266 16.7602 26.4049 16.4384C26.0832 16.1167 25.6737 15.8974 25.2204 15.8096C24.7671 15.7219 24.2991 15.7657 23.875 15.9412C23.4509 16.1167 23.0853 16.4092 22.8367 16.7894C22.5881 17.1696 22.4419 17.6229 22.4419 18.0763C22.4419 18.6905 22.6905 19.2754 23.1146 19.7141C23.5533 20.1528 24.1382 20.3868 24.7524 20.3868C25.2058 20.3868 25.6591 20.2552 26.0393 19.992C26.4342 19.758 26.7266 19.3924 26.9021 18.9683Z" fill="#08124C"/>
<path d="M11.9132 29.3952H7.07275V34.0017H11.9132V29.4098V29.3952Z" fill="#FF50A4"/>
<path d="M34.1702 18.0766C34.1702 12.8852 29.9586 8.67358 24.7672 8.67358H22.3397H17.6747H15.2472C10.0558 8.67358 5.84424 12.8852 5.84424 18.0766C5.84424 23.268 10.0558 27.4796 15.2326 27.4796H15.2765C15.101 27.8159 14.867 28.123 14.5745 28.3862C13.8726 29.0297 12.9074 29.3953 11.913 29.4099V34.0163C14.0335 34.0163 16.0808 33.2998 17.6747 32.0275V34.572H22.3104V32.0129C23.9044 33.2852 25.9517 34.0017 28.0721 34.0017V29.3953C27.0777 29.3953 26.1126 29.0297 25.4106 28.3716C25.1182 28.1084 24.8842 27.8013 24.7087 27.465H24.7526C29.944 27.4796 34.1702 23.268 34.1702 18.0766ZM15.2326 22.8439C12.6004 22.8439 10.4653 20.7088 10.4653 18.0766C10.4653 15.4443 12.6004 13.3093 15.2326 13.3093H24.7526C27.3848 13.3093 29.5199 15.4443 29.5199 18.0766C29.5199 20.7088 27.3848 22.8439 24.7526 22.8439H15.2326Z" fill="#08124C"/>
<path d="M28.0869 29.4098V34.0017H32.9273V29.3952H28.0869V29.4098Z" fill="#04E1FF"/>
<path d="M17.6748 36.7653V39.4414H22.3251V36.7653V34.5571H17.6748V36.7653Z" fill="#FF8F28"/>
</svg>
